<mxfile host="app.diagrams.net" agent="Mozilla/5.0 (Windows NT 10.0; Win64; x64) AppleWebKit/537.36 (KHTML, like Gecko) Chrome/131.0.0.0 Safari/537.36" version="25.0.3">
  <diagram id="n0hts4nqIw-bhDP7IXoY" name="Page-2">
    <mxGraphModel dx="4327" dy="2909" grid="1" gridSize="10" guides="1" tooltips="1" connect="1" arrows="1" fold="1" page="1" pageScale="1" pageWidth="827" pageHeight="1169" background="#ffffff" math="0" shadow="0">
      <root>
        <mxCell id="0" />
        <mxCell id="1" parent="0" />
        <mxCell id="kZADWly243SHnXjZNP4Z-330" value="" style="rounded=0;whiteSpace=wrap;html=1;" vertex="1" parent="1">
          <mxGeometry x="-10" y="-26.76" width="3000" height="980" as="geometry" />
        </mxCell>
        <mxCell id="kZADWly243SHnXjZNP4Z-203" value="BackupManager" style="swimlane;fontStyle=1;align=center;verticalAlign=top;childLayout=stackLayout;horizontal=1;startSize=25.774999618530273;horizontalStack=0;resizeParent=1;resizeParentMax=0;resizeLast=0;collapsible=0;marginBottom=0;labelBackgroundColor=none;fillColor=#F2CC8F;strokeColor=#E07A5F;fontColor=#393C56;rounded=1;" vertex="1" parent="1">
          <mxGeometry x="1384" y="20" width="319" height="215.77499961853027" as="geometry" />
        </mxCell>
        <mxCell id="kZADWly243SHnXjZNP4Z-204" value="- ConfigurationManager configManager" style="text;strokeColor=none;fillColor=none;align=left;verticalAlign=top;spacingLeft=4;spacingRight=4;overflow=hidden;rotatable=0;points=[[0,0.5],[1,0.5]];portConstraint=eastwest;labelBackgroundColor=none;fontColor=#393C56;rounded=1;" vertex="1" parent="kZADWly243SHnXjZNP4Z-203">
          <mxGeometry y="25.774999618530273" width="319" height="26" as="geometry" />
        </mxCell>
        <mxCell id="kZADWly243SHnXjZNP4Z-205" value="- Scheduler scheduler" style="text;strokeColor=none;fillColor=none;align=left;verticalAlign=top;spacingLeft=4;spacingRight=4;overflow=hidden;rotatable=0;points=[[0,0.5],[1,0.5]];portConstraint=eastwest;labelBackgroundColor=none;fontColor=#393C56;rounded=1;" vertex="1" parent="kZADWly243SHnXjZNP4Z-203">
          <mxGeometry y="51.77499961853027" width="319" height="26" as="geometry" />
        </mxCell>
        <mxCell id="kZADWly243SHnXjZNP4Z-206" value="- StorageManager storageManager" style="text;strokeColor=none;fillColor=none;align=left;verticalAlign=top;spacingLeft=4;spacingRight=4;overflow=hidden;rotatable=0;points=[[0,0.5],[1,0.5]];portConstraint=eastwest;labelBackgroundColor=none;fontColor=#393C56;rounded=1;" vertex="1" parent="kZADWly243SHnXjZNP4Z-203">
          <mxGeometry y="77.77499961853027" width="319" height="26" as="geometry" />
        </mxCell>
        <mxCell id="kZADWly243SHnXjZNP4Z-207" value="- NotificationManager notificationManager" style="text;strokeColor=none;fillColor=none;align=left;verticalAlign=top;spacingLeft=4;spacingRight=4;overflow=hidden;rotatable=0;points=[[0,0.5],[1,0.5]];portConstraint=eastwest;labelBackgroundColor=none;fontColor=#393C56;rounded=1;" vertex="1" parent="kZADWly243SHnXjZNP4Z-203">
          <mxGeometry y="103.77499961853027" width="319" height="26" as="geometry" />
        </mxCell>
        <mxCell id="kZADWly243SHnXjZNP4Z-208" value="- LogManager logManager" style="text;strokeColor=none;fillColor=none;align=left;verticalAlign=top;spacingLeft=4;spacingRight=4;overflow=hidden;rotatable=0;points=[[0,0.5],[1,0.5]];portConstraint=eastwest;labelBackgroundColor=none;fontColor=#393C56;rounded=1;" vertex="1" parent="kZADWly243SHnXjZNP4Z-203">
          <mxGeometry y="129.77499961853027" width="319" height="26" as="geometry" />
        </mxCell>
        <mxCell id="kZADWly243SHnXjZNP4Z-209" style="line;strokeWidth=1;fillColor=none;align=left;verticalAlign=middle;spacingTop=-1;spacingLeft=3;spacingRight=3;rotatable=0;labelPosition=right;points=[];portConstraint=eastwest;strokeColor=#E07A5F;labelBackgroundColor=none;fontColor=#393C56;rounded=1;" vertex="1" parent="kZADWly243SHnXjZNP4Z-203">
          <mxGeometry y="155.77499961853027" width="319" height="8" as="geometry" />
        </mxCell>
        <mxCell id="kZADWly243SHnXjZNP4Z-210" value="+startBackup() : : void" style="text;strokeColor=none;fillColor=none;align=left;verticalAlign=top;spacingLeft=4;spacingRight=4;overflow=hidden;rotatable=0;points=[[0,0.5],[1,0.5]];portConstraint=eastwest;labelBackgroundColor=none;fontColor=#393C56;rounded=1;" vertex="1" parent="kZADWly243SHnXjZNP4Z-203">
          <mxGeometry y="163.77499961853027" width="319" height="26" as="geometry" />
        </mxCell>
        <mxCell id="kZADWly243SHnXjZNP4Z-211" value="+restoreBackup(id: int) : : void" style="text;strokeColor=none;fillColor=none;align=left;verticalAlign=top;spacingLeft=4;spacingRight=4;overflow=hidden;rotatable=0;points=[[0,0.5],[1,0.5]];portConstraint=eastwest;labelBackgroundColor=none;fontColor=#393C56;rounded=1;" vertex="1" parent="kZADWly243SHnXjZNP4Z-203">
          <mxGeometry y="189.77499961853027" width="319" height="26" as="geometry" />
        </mxCell>
        <mxCell id="kZADWly243SHnXjZNP4Z-212" value="BackupJob" style="swimlane;fontStyle=1;align=center;verticalAlign=top;childLayout=stackLayout;horizontal=1;startSize=29.149999618530273;horizontalStack=0;resizeParent=1;resizeParentMax=0;resizeLast=0;collapsible=0;marginBottom=0;labelBackgroundColor=none;fillColor=#F2CC8F;strokeColor=#E07A5F;fontColor=#393C56;rounded=1;" vertex="1" parent="1">
          <mxGeometry x="1057" y="403" width="217" height="124.14999961853027" as="geometry" />
        </mxCell>
        <mxCell id="kZADWly243SHnXjZNP4Z-213" value="- BackupTarget target" style="text;strokeColor=none;fillColor=none;align=left;verticalAlign=top;spacingLeft=4;spacingRight=4;overflow=hidden;rotatable=0;points=[[0,0.5],[1,0.5]];portConstraint=eastwest;labelBackgroundColor=none;fontColor=#393C56;rounded=1;" vertex="1" parent="kZADWly243SHnXjZNP4Z-212">
          <mxGeometry y="29.149999618530273" width="217" height="29" as="geometry" />
        </mxCell>
        <mxCell id="kZADWly243SHnXjZNP4Z-214" value="- BackupMetadata metadata" style="text;strokeColor=none;fillColor=none;align=left;verticalAlign=top;spacingLeft=4;spacingRight=4;overflow=hidden;rotatable=0;points=[[0,0.5],[1,0.5]];portConstraint=eastwest;labelBackgroundColor=none;fontColor=#393C56;rounded=1;" vertex="1" parent="kZADWly243SHnXjZNP4Z-212">
          <mxGeometry y="58.14999961853027" width="217" height="29" as="geometry" />
        </mxCell>
        <mxCell id="kZADWly243SHnXjZNP4Z-215" style="line;strokeWidth=1;fillColor=none;align=left;verticalAlign=middle;spacingTop=-1;spacingLeft=3;spacingRight=3;rotatable=0;labelPosition=right;points=[];portConstraint=eastwest;strokeColor=#E07A5F;labelBackgroundColor=none;fontColor=#393C56;rounded=1;" vertex="1" parent="kZADWly243SHnXjZNP4Z-212">
          <mxGeometry y="87.14999961853027" width="217" height="8" as="geometry" />
        </mxCell>
        <mxCell id="kZADWly243SHnXjZNP4Z-216" value="+run() : : void" style="text;strokeColor=none;fillColor=none;align=left;verticalAlign=top;spacingLeft=4;spacingRight=4;overflow=hidden;rotatable=0;points=[[0,0.5],[1,0.5]];portConstraint=eastwest;labelBackgroundColor=none;fontColor=#393C56;rounded=1;" vertex="1" parent="kZADWly243SHnXjZNP4Z-212">
          <mxGeometry y="95.14999961853027" width="217" height="29" as="geometry" />
        </mxCell>
        <mxCell id="kZADWly243SHnXjZNP4Z-217" value="ConfigurationManager" style="swimlane;fontStyle=1;align=center;verticalAlign=top;childLayout=stackLayout;horizontal=1;startSize=24.47692401592548;horizontalStack=0;resizeParent=1;resizeParentMax=0;resizeLast=0;collapsible=0;marginBottom=0;labelBackgroundColor=none;fillColor=#F2CC8F;strokeColor=#E07A5F;fontColor=#393C56;rounded=1;" vertex="1" parent="1">
          <mxGeometry x="288" y="303" width="392" height="320.4769240159255" as="geometry" />
        </mxCell>
        <mxCell id="kZADWly243SHnXjZNP4Z-218" value="- String configFilePath" style="text;strokeColor=none;fillColor=none;align=left;verticalAlign=top;spacingLeft=4;spacingRight=4;overflow=hidden;rotatable=0;points=[[0,0.5],[1,0.5]];portConstraint=eastwest;labelBackgroundColor=none;fontColor=#393C56;rounded=1;" vertex="1" parent="kZADWly243SHnXjZNP4Z-217">
          <mxGeometry y="24.47692401592548" width="392" height="24" as="geometry" />
        </mxCell>
        <mxCell id="kZADWly243SHnXjZNP4Z-219" value="- Map configData" style="text;strokeColor=none;fillColor=none;align=left;verticalAlign=top;spacingLeft=4;spacingRight=4;overflow=hidden;rotatable=0;points=[[0,0.5],[1,0.5]];portConstraint=eastwest;labelBackgroundColor=none;fontColor=#393C56;rounded=1;" vertex="1" parent="kZADWly243SHnXjZNP4Z-217">
          <mxGeometry y="48.476924015925476" width="392" height="24" as="geometry" />
        </mxCell>
        <mxCell id="kZADWly243SHnXjZNP4Z-220" value="- String preBackupScriptPath" style="text;strokeColor=none;fillColor=none;align=left;verticalAlign=top;spacingLeft=4;spacingRight=4;overflow=hidden;rotatable=0;points=[[0,0.5],[1,0.5]];portConstraint=eastwest;labelBackgroundColor=none;fontColor=#393C56;rounded=1;" vertex="1" parent="kZADWly243SHnXjZNP4Z-217">
          <mxGeometry y="72.47692401592548" width="392" height="24" as="geometry" />
        </mxCell>
        <mxCell id="kZADWly243SHnXjZNP4Z-221" value="- String postBackupScriptPath" style="text;strokeColor=none;fillColor=none;align=left;verticalAlign=top;spacingLeft=4;spacingRight=4;overflow=hidden;rotatable=0;points=[[0,0.5],[1,0.5]];portConstraint=eastwest;labelBackgroundColor=none;fontColor=#393C56;rounded=1;" vertex="1" parent="kZADWly243SHnXjZNP4Z-217">
          <mxGeometry y="96.47692401592548" width="392" height="24" as="geometry" />
        </mxCell>
        <mxCell id="kZADWly243SHnXjZNP4Z-222" value="- Map errorHandlingConfig" style="text;strokeColor=none;fillColor=none;align=left;verticalAlign=top;spacingLeft=4;spacingRight=4;overflow=hidden;rotatable=0;points=[[0,0.5],[1,0.5]];portConstraint=eastwest;labelBackgroundColor=none;fontColor=#393C56;rounded=1;" vertex="1" parent="kZADWly243SHnXjZNP4Z-217">
          <mxGeometry y="120.47692401592548" width="392" height="24" as="geometry" />
        </mxCell>
        <mxCell id="kZADWly243SHnXjZNP4Z-223" style="line;strokeWidth=1;fillColor=none;align=left;verticalAlign=middle;spacingTop=-1;spacingLeft=3;spacingRight=3;rotatable=0;labelPosition=right;points=[];portConstraint=eastwest;strokeColor=#E07A5F;labelBackgroundColor=none;fontColor=#393C56;rounded=1;" vertex="1" parent="kZADWly243SHnXjZNP4Z-217">
          <mxGeometry y="144.47692401592548" width="392" height="8" as="geometry" />
        </mxCell>
        <mxCell id="kZADWly243SHnXjZNP4Z-224" value="+loadConfig() : : void" style="text;strokeColor=none;fillColor=none;align=left;verticalAlign=top;spacingLeft=4;spacingRight=4;overflow=hidden;rotatable=0;points=[[0,0.5],[1,0.5]];portConstraint=eastwest;labelBackgroundColor=none;fontColor=#393C56;rounded=1;" vertex="1" parent="kZADWly243SHnXjZNP4Z-217">
          <mxGeometry y="152.47692401592548" width="392" height="24" as="geometry" />
        </mxCell>
        <mxCell id="kZADWly243SHnXjZNP4Z-225" value="+getServers() : : List" style="text;strokeColor=none;fillColor=none;align=left;verticalAlign=top;spacingLeft=4;spacingRight=4;overflow=hidden;rotatable=0;points=[[0,0.5],[1,0.5]];portConstraint=eastwest;labelBackgroundColor=none;fontColor=#393C56;rounded=1;" vertex="1" parent="kZADWly243SHnXjZNP4Z-217">
          <mxGeometry y="176.47692401592548" width="392" height="24" as="geometry" />
        </mxCell>
        <mxCell id="kZADWly243SHnXjZNP4Z-226" value="+getDatabases() : : List" style="text;strokeColor=none;fillColor=none;align=left;verticalAlign=top;spacingLeft=4;spacingRight=4;overflow=hidden;rotatable=0;points=[[0,0.5],[1,0.5]];portConstraint=eastwest;labelBackgroundColor=none;fontColor=#393C56;rounded=1;" vertex="1" parent="kZADWly243SHnXjZNP4Z-217">
          <mxGeometry y="200.47692401592548" width="392" height="24" as="geometry" />
        </mxCell>
        <mxCell id="kZADWly243SHnXjZNP4Z-227" value="+getScheduleConfig() : : ScheduleConfig" style="text;strokeColor=none;fillColor=none;align=left;verticalAlign=top;spacingLeft=4;spacingRight=4;overflow=hidden;rotatable=0;points=[[0,0.5],[1,0.5]];portConstraint=eastwest;labelBackgroundColor=none;fontColor=#393C56;rounded=1;" vertex="1" parent="kZADWly243SHnXjZNP4Z-217">
          <mxGeometry y="224.47692401592548" width="392" height="24" as="geometry" />
        </mxCell>
        <mxCell id="kZADWly243SHnXjZNP4Z-228" value="+getRemoteStorageConfig() : : RemoteStorageConfig" style="text;strokeColor=none;fillColor=none;align=left;verticalAlign=top;spacingLeft=4;spacingRight=4;overflow=hidden;rotatable=0;points=[[0,0.5],[1,0.5]];portConstraint=eastwest;labelBackgroundColor=none;fontColor=#393C56;rounded=1;" vertex="1" parent="kZADWly243SHnXjZNP4Z-217">
          <mxGeometry y="248.47692401592548" width="392" height="24" as="geometry" />
        </mxCell>
        <mxCell id="kZADWly243SHnXjZNP4Z-229" value="+getRetentionPolicy() : : RetentionPolicy" style="text;strokeColor=none;fillColor=none;align=left;verticalAlign=top;spacingLeft=4;spacingRight=4;overflow=hidden;rotatable=0;points=[[0,0.5],[1,0.5]];portConstraint=eastwest;labelBackgroundColor=none;fontColor=#393C56;rounded=1;" vertex="1" parent="kZADWly243SHnXjZNP4Z-217">
          <mxGeometry y="272.4769240159255" width="392" height="24" as="geometry" />
        </mxCell>
        <mxCell id="kZADWly243SHnXjZNP4Z-230" value="+getNotificationConfig() : : NotificationConfig" style="text;strokeColor=none;fillColor=none;align=left;verticalAlign=top;spacingLeft=4;spacingRight=4;overflow=hidden;rotatable=0;points=[[0,0.5],[1,0.5]];portConstraint=eastwest;labelBackgroundColor=none;fontColor=#393C56;rounded=1;" vertex="1" parent="kZADWly243SHnXjZNP4Z-217">
          <mxGeometry y="296.4769240159255" width="392" height="24" as="geometry" />
        </mxCell>
        <mxCell id="kZADWly243SHnXjZNP4Z-231" value="Scheduler" style="swimlane;fontStyle=1;align=center;verticalAlign=top;childLayout=stackLayout;horizontal=1;startSize=31.399998982747395;horizontalStack=0;resizeParent=1;resizeParentMax=0;resizeLast=0;collapsible=0;marginBottom=0;labelBackgroundColor=none;fillColor=#F2CC8F;strokeColor=#E07A5F;fontColor=#393C56;rounded=1;" vertex="1" parent="1">
          <mxGeometry x="1325" y="415" width="186" height="101.39999898274739" as="geometry" />
        </mxCell>
        <mxCell id="kZADWly243SHnXjZNP4Z-232" value="- Map scheduleData" style="text;strokeColor=none;fillColor=none;align=left;verticalAlign=top;spacingLeft=4;spacingRight=4;overflow=hidden;rotatable=0;points=[[0,0.5],[1,0.5]];portConstraint=eastwest;labelBackgroundColor=none;fontColor=#393C56;rounded=1;" vertex="1" parent="kZADWly243SHnXjZNP4Z-231">
          <mxGeometry y="31.399998982747395" width="186" height="31" as="geometry" />
        </mxCell>
        <mxCell id="kZADWly243SHnXjZNP4Z-233" style="line;strokeWidth=1;fillColor=none;align=left;verticalAlign=middle;spacingTop=-1;spacingLeft=3;spacingRight=3;rotatable=0;labelPosition=right;points=[];portConstraint=eastwest;strokeColor=#E07A5F;labelBackgroundColor=none;fontColor=#393C56;rounded=1;" vertex="1" parent="kZADWly243SHnXjZNP4Z-231">
          <mxGeometry y="62.39999898274739" width="186" height="8" as="geometry" />
        </mxCell>
        <mxCell id="kZADWly243SHnXjZNP4Z-234" value="+scheduleJobs() : : void" style="text;strokeColor=none;fillColor=none;align=left;verticalAlign=top;spacingLeft=4;spacingRight=4;overflow=hidden;rotatable=0;points=[[0,0.5],[1,0.5]];portConstraint=eastwest;labelBackgroundColor=none;fontColor=#393C56;rounded=1;" vertex="1" parent="kZADWly243SHnXjZNP4Z-231">
          <mxGeometry y="70.39999898274739" width="186" height="31" as="geometry" />
        </mxCell>
        <mxCell id="kZADWly243SHnXjZNP4Z-235" value="StorageManager" style="swimlane;fontStyle=1;align=center;verticalAlign=top;childLayout=stackLayout;horizontal=1;startSize=29.149999618530273;horizontalStack=0;resizeParent=1;resizeParentMax=0;resizeLast=0;collapsible=0;marginBottom=0;labelBackgroundColor=none;fillColor=#F2CC8F;strokeColor=#E07A5F;fontColor=#393C56;rounded=1;" vertex="1" parent="1">
          <mxGeometry x="1561" y="403" width="219" height="124.14999961853027" as="geometry" />
        </mxCell>
        <mxCell id="kZADWly243SHnXjZNP4Z-236" value="- String remotePath" style="text;strokeColor=none;fillColor=none;align=left;verticalAlign=top;spacingLeft=4;spacingRight=4;overflow=hidden;rotatable=0;points=[[0,0.5],[1,0.5]];portConstraint=eastwest;labelBackgroundColor=none;fontColor=#393C56;rounded=1;" vertex="1" parent="kZADWly243SHnXjZNP4Z-235">
          <mxGeometry y="29.149999618530273" width="219" height="29" as="geometry" />
        </mxCell>
        <mxCell id="kZADWly243SHnXjZNP4Z-237" style="line;strokeWidth=1;fillColor=none;align=left;verticalAlign=middle;spacingTop=-1;spacingLeft=3;spacingRight=3;rotatable=0;labelPosition=right;points=[];portConstraint=eastwest;strokeColor=#E07A5F;labelBackgroundColor=none;fontColor=#393C56;rounded=1;" vertex="1" parent="kZADWly243SHnXjZNP4Z-235">
          <mxGeometry y="58.14999961853027" width="219" height="8" as="geometry" />
        </mxCell>
        <mxCell id="kZADWly243SHnXjZNP4Z-238" value="+storeBackup() : : void" style="text;strokeColor=none;fillColor=none;align=left;verticalAlign=top;spacingLeft=4;spacingRight=4;overflow=hidden;rotatable=0;points=[[0,0.5],[1,0.5]];portConstraint=eastwest;labelBackgroundColor=none;fontColor=#393C56;rounded=1;" vertex="1" parent="kZADWly243SHnXjZNP4Z-235">
          <mxGeometry y="66.14999961853027" width="219" height="29" as="geometry" />
        </mxCell>
        <mxCell id="kZADWly243SHnXjZNP4Z-239" value="+deleteOldBackups() : : void" style="text;strokeColor=none;fillColor=none;align=left;verticalAlign=top;spacingLeft=4;spacingRight=4;overflow=hidden;rotatable=0;points=[[0,0.5],[1,0.5]];portConstraint=eastwest;labelBackgroundColor=none;fontColor=#393C56;rounded=1;" vertex="1" parent="kZADWly243SHnXjZNP4Z-235">
          <mxGeometry y="95.14999961853027" width="219" height="29" as="geometry" />
        </mxCell>
        <mxCell id="kZADWly243SHnXjZNP4Z-240" value="NotificationManager" style="swimlane;fontStyle=1;align=center;verticalAlign=top;childLayout=stackLayout;horizontal=1;startSize=31.399998982747395;horizontalStack=0;resizeParent=1;resizeParentMax=0;resizeLast=0;collapsible=0;marginBottom=0;labelBackgroundColor=none;fillColor=#F2CC8F;strokeColor=#E07A5F;fontColor=#393C56;rounded=1;" vertex="1" parent="1">
          <mxGeometry x="1830" y="415" width="209" height="101.39999898274739" as="geometry" />
        </mxCell>
        <mxCell id="kZADWly243SHnXjZNP4Z-241" value="- String smtpServer" style="text;strokeColor=none;fillColor=none;align=left;verticalAlign=top;spacingLeft=4;spacingRight=4;overflow=hidden;rotatable=0;points=[[0,0.5],[1,0.5]];portConstraint=eastwest;labelBackgroundColor=none;fontColor=#393C56;rounded=1;" vertex="1" parent="kZADWly243SHnXjZNP4Z-240">
          <mxGeometry y="31.399998982747395" width="209" height="31" as="geometry" />
        </mxCell>
        <mxCell id="kZADWly243SHnXjZNP4Z-242" style="line;strokeWidth=1;fillColor=none;align=left;verticalAlign=middle;spacingTop=-1;spacingLeft=3;spacingRight=3;rotatable=0;labelPosition=right;points=[];portConstraint=eastwest;strokeColor=#E07A5F;labelBackgroundColor=none;fontColor=#393C56;rounded=1;" vertex="1" parent="kZADWly243SHnXjZNP4Z-240">
          <mxGeometry y="62.39999898274739" width="209" height="8" as="geometry" />
        </mxCell>
        <mxCell id="kZADWly243SHnXjZNP4Z-243" value="+sendNotification() : : void" style="text;strokeColor=none;fillColor=none;align=left;verticalAlign=top;spacingLeft=4;spacingRight=4;overflow=hidden;rotatable=0;points=[[0,0.5],[1,0.5]];portConstraint=eastwest;labelBackgroundColor=none;fontColor=#393C56;rounded=1;" vertex="1" parent="kZADWly243SHnXjZNP4Z-240">
          <mxGeometry y="70.39999898274739" width="209" height="31" as="geometry" />
        </mxCell>
        <mxCell id="kZADWly243SHnXjZNP4Z-244" value="LogManager" style="swimlane;fontStyle=1;align=center;verticalAlign=top;childLayout=stackLayout;horizontal=1;startSize=29.149999618530273;horizontalStack=0;resizeParent=1;resizeParentMax=0;resizeLast=0;collapsible=0;marginBottom=0;labelBackgroundColor=none;fillColor=#F2CC8F;strokeColor=#E07A5F;fontColor=#393C56;rounded=1;" vertex="1" parent="1">
          <mxGeometry x="2089" y="403" width="261" height="124.14999961853027" as="geometry" />
        </mxCell>
        <mxCell id="kZADWly243SHnXjZNP4Z-245" value="- String logFilePath" style="text;strokeColor=none;fillColor=none;align=left;verticalAlign=top;spacingLeft=4;spacingRight=4;overflow=hidden;rotatable=0;points=[[0,0.5],[1,0.5]];portConstraint=eastwest;labelBackgroundColor=none;fontColor=#393C56;rounded=1;" vertex="1" parent="kZADWly243SHnXjZNP4Z-244">
          <mxGeometry y="29.149999618530273" width="261" height="29" as="geometry" />
        </mxCell>
        <mxCell id="kZADWly243SHnXjZNP4Z-246" style="line;strokeWidth=1;fillColor=none;align=left;verticalAlign=middle;spacingTop=-1;spacingLeft=3;spacingRight=3;rotatable=0;labelPosition=right;points=[];portConstraint=eastwest;strokeColor=#E07A5F;labelBackgroundColor=none;fontColor=#393C56;rounded=1;" vertex="1" parent="kZADWly243SHnXjZNP4Z-244">
          <mxGeometry y="58.14999961853027" width="261" height="8" as="geometry" />
        </mxCell>
        <mxCell id="kZADWly243SHnXjZNP4Z-247" value="+logInfo(message: String) : : void" style="text;strokeColor=none;fillColor=none;align=left;verticalAlign=top;spacingLeft=4;spacingRight=4;overflow=hidden;rotatable=0;points=[[0,0.5],[1,0.5]];portConstraint=eastwest;labelBackgroundColor=none;fontColor=#393C56;rounded=1;" vertex="1" parent="kZADWly243SHnXjZNP4Z-244">
          <mxGeometry y="66.14999961853027" width="261" height="29" as="geometry" />
        </mxCell>
        <mxCell id="kZADWly243SHnXjZNP4Z-248" value="+logError(message: String) : : void" style="text;strokeColor=none;fillColor=none;align=left;verticalAlign=top;spacingLeft=4;spacingRight=4;overflow=hidden;rotatable=0;points=[[0,0.5],[1,0.5]];portConstraint=eastwest;labelBackgroundColor=none;fontColor=#393C56;rounded=1;" vertex="1" parent="kZADWly243SHnXjZNP4Z-244">
          <mxGeometry y="95.14999961853027" width="261" height="29" as="geometry" />
        </mxCell>
        <mxCell id="kZADWly243SHnXjZNP4Z-249" value="BackupMetadata" style="swimlane;fontStyle=1;align=center;verticalAlign=top;childLayout=stackLayout;horizontal=1;startSize=26.899998982747395;horizontalStack=0;resizeParent=1;resizeParentMax=0;resizeLast=0;collapsible=0;marginBottom=0;labelBackgroundColor=none;fillColor=#F2CC8F;strokeColor=#E07A5F;fontColor=#393C56;rounded=1;" vertex="1" parent="1">
          <mxGeometry x="1045" y="720" width="138" height="169.89999898274738" as="geometry" />
        </mxCell>
        <mxCell id="kZADWly243SHnXjZNP4Z-250" value="- int backupId" style="text;strokeColor=none;fillColor=none;align=left;verticalAlign=top;spacingLeft=4;spacingRight=4;overflow=hidden;rotatable=0;points=[[0,0.5],[1,0.5]];portConstraint=eastwest;labelBackgroundColor=none;fontColor=#393C56;rounded=1;" vertex="1" parent="kZADWly243SHnXjZNP4Z-249">
          <mxGeometry y="26.899998982747395" width="138" height="27" as="geometry" />
        </mxCell>
        <mxCell id="kZADWly243SHnXjZNP4Z-251" value="- String status" style="text;strokeColor=none;fillColor=none;align=left;verticalAlign=top;spacingLeft=4;spacingRight=4;overflow=hidden;rotatable=0;points=[[0,0.5],[1,0.5]];portConstraint=eastwest;labelBackgroundColor=none;fontColor=#393C56;rounded=1;" vertex="1" parent="kZADWly243SHnXjZNP4Z-249">
          <mxGeometry y="53.89999898274739" width="138" height="27" as="geometry" />
        </mxCell>
        <mxCell id="kZADWly243SHnXjZNP4Z-252" value="- String location" style="text;strokeColor=none;fillColor=none;align=left;verticalAlign=top;spacingLeft=4;spacingRight=4;overflow=hidden;rotatable=0;points=[[0,0.5],[1,0.5]];portConstraint=eastwest;labelBackgroundColor=none;fontColor=#393C56;rounded=1;" vertex="1" parent="kZADWly243SHnXjZNP4Z-249">
          <mxGeometry y="80.89999898274739" width="138" height="27" as="geometry" />
        </mxCell>
        <mxCell id="kZADWly243SHnXjZNP4Z-253" value="- int size" style="text;strokeColor=none;fillColor=none;align=left;verticalAlign=top;spacingLeft=4;spacingRight=4;overflow=hidden;rotatable=0;points=[[0,0.5],[1,0.5]];portConstraint=eastwest;labelBackgroundColor=none;fontColor=#393C56;rounded=1;" vertex="1" parent="kZADWly243SHnXjZNP4Z-249">
          <mxGeometry y="107.89999898274739" width="138" height="27" as="geometry" />
        </mxCell>
        <mxCell id="kZADWly243SHnXjZNP4Z-254" style="line;strokeWidth=1;fillColor=none;align=left;verticalAlign=middle;spacingTop=-1;spacingLeft=3;spacingRight=3;rotatable=0;labelPosition=right;points=[];portConstraint=eastwest;strokeColor=#E07A5F;labelBackgroundColor=none;fontColor=#393C56;rounded=1;" vertex="1" parent="kZADWly243SHnXjZNP4Z-249">
          <mxGeometry y="134.89999898274738" width="138" height="8" as="geometry" />
        </mxCell>
        <mxCell id="kZADWly243SHnXjZNP4Z-255" value="+save() : : void" style="text;strokeColor=none;fillColor=none;align=left;verticalAlign=top;spacingLeft=4;spacingRight=4;overflow=hidden;rotatable=0;points=[[0,0.5],[1,0.5]];portConstraint=eastwest;labelBackgroundColor=none;fontColor=#393C56;rounded=1;" vertex="1" parent="kZADWly243SHnXjZNP4Z-249">
          <mxGeometry y="142.89999898274738" width="138" height="27" as="geometry" />
        </mxCell>
        <mxCell id="kZADWly243SHnXjZNP4Z-256" value="&lt;&lt;interface&gt;&gt;&#xa;BackupTarget" style="swimlane;fontStyle=1;align=center;verticalAlign=top;childLayout=stackLayout;horizontal=1;startSize=43.72499942779541;horizontalStack=0;resizeParent=1;resizeParentMax=0;resizeLast=0;collapsible=0;marginBottom=0;labelBackgroundColor=none;fillColor=#F2CC8F;strokeColor=#E07A5F;fontColor=#393C56;rounded=1;" vertex="1" parent="1">
          <mxGeometry x="1758" y="742" width="200" height="109.72499942779541" as="geometry" />
        </mxCell>
        <mxCell id="kZADWly243SHnXjZNP4Z-257" style="line;strokeWidth=1;fillColor=none;align=left;verticalAlign=middle;spacingTop=-1;spacingLeft=3;spacingRight=3;rotatable=0;labelPosition=right;points=[];portConstraint=eastwest;strokeColor=#E07A5F;labelBackgroundColor=none;fontColor=#393C56;rounded=1;" vertex="1" parent="kZADWly243SHnXjZNP4Z-256">
          <mxGeometry y="43.72499942779541" width="200" height="8" as="geometry" />
        </mxCell>
        <mxCell id="kZADWly243SHnXjZNP4Z-258" value="+performBackup() : : void" style="text;strokeColor=none;fillColor=none;align=left;verticalAlign=top;spacingLeft=4;spacingRight=4;overflow=hidden;rotatable=0;points=[[0,0.5],[1,0.5]];portConstraint=eastwest;labelBackgroundColor=none;fontColor=#393C56;rounded=1;" vertex="1" parent="kZADWly243SHnXjZNP4Z-256">
          <mxGeometry y="51.72499942779541" width="200" height="29" as="geometry" />
        </mxCell>
        <mxCell id="kZADWly243SHnXjZNP4Z-259" value="+getName() : : String" style="text;strokeColor=none;fillColor=none;align=left;verticalAlign=top;spacingLeft=4;spacingRight=4;overflow=hidden;rotatable=0;points=[[0,0.5],[1,0.5]];portConstraint=eastwest;labelBackgroundColor=none;fontColor=#393C56;rounded=1;" vertex="1" parent="kZADWly243SHnXjZNP4Z-256">
          <mxGeometry y="80.72499942779541" width="200" height="29" as="geometry" />
        </mxCell>
        <mxCell id="kZADWly243SHnXjZNP4Z-260" value="Server" style="swimlane;fontStyle=1;align=center;verticalAlign=top;childLayout=stackLayout;horizontal=1;startSize=24.8545448996804;horizontalStack=0;resizeParent=1;resizeParentMax=0;resizeLast=0;collapsible=0;marginBottom=0;labelBackgroundColor=none;fillColor=#F2CC8F;strokeColor=#E07A5F;fontColor=#393C56;rounded=1;" vertex="1" parent="1">
          <mxGeometry x="2400" y="325" width="200" height="282.8545448996804" as="geometry" />
        </mxCell>
        <mxCell id="kZADWly243SHnXjZNP4Z-261" value="- String name" style="text;strokeColor=none;fillColor=none;align=left;verticalAlign=top;spacingLeft=4;spacingRight=4;overflow=hidden;rotatable=0;points=[[0,0.5],[1,0.5]];portConstraint=eastwest;labelBackgroundColor=none;fontColor=#393C56;rounded=1;" vertex="1" parent="kZADWly243SHnXjZNP4Z-260">
          <mxGeometry y="24.8545448996804" width="200" height="25" as="geometry" />
        </mxCell>
        <mxCell id="kZADWly243SHnXjZNP4Z-262" value="- String host" style="text;strokeColor=none;fillColor=none;align=left;verticalAlign=top;spacingLeft=4;spacingRight=4;overflow=hidden;rotatable=0;points=[[0,0.5],[1,0.5]];portConstraint=eastwest;labelBackgroundColor=none;fontColor=#393C56;rounded=1;" vertex="1" parent="kZADWly243SHnXjZNP4Z-260">
          <mxGeometry y="49.8545448996804" width="200" height="25" as="geometry" />
        </mxCell>
        <mxCell id="kZADWly243SHnXjZNP4Z-263" value="- String user" style="text;strokeColor=none;fillColor=none;align=left;verticalAlign=top;spacingLeft=4;spacingRight=4;overflow=hidden;rotatable=0;points=[[0,0.5],[1,0.5]];portConstraint=eastwest;labelBackgroundColor=none;fontColor=#393C56;rounded=1;" vertex="1" parent="kZADWly243SHnXjZNP4Z-260">
          <mxGeometry y="74.8545448996804" width="200" height="25" as="geometry" />
        </mxCell>
        <mxCell id="kZADWly243SHnXjZNP4Z-264" value="- String password" style="text;strokeColor=none;fillColor=none;align=left;verticalAlign=top;spacingLeft=4;spacingRight=4;overflow=hidden;rotatable=0;points=[[0,0.5],[1,0.5]];portConstraint=eastwest;labelBackgroundColor=none;fontColor=#393C56;rounded=1;" vertex="1" parent="kZADWly243SHnXjZNP4Z-260">
          <mxGeometry y="99.8545448996804" width="200" height="25" as="geometry" />
        </mxCell>
        <mxCell id="kZADWly243SHnXjZNP4Z-265" value="- List pathsToBackup" style="text;strokeColor=none;fillColor=none;align=left;verticalAlign=top;spacingLeft=4;spacingRight=4;overflow=hidden;rotatable=0;points=[[0,0.5],[1,0.5]];portConstraint=eastwest;labelBackgroundColor=none;fontColor=#393C56;rounded=1;" vertex="1" parent="kZADWly243SHnXjZNP4Z-260">
          <mxGeometry y="124.8545448996804" width="200" height="25" as="geometry" />
        </mxCell>
        <mxCell id="kZADWly243SHnXjZNP4Z-266" value="- List excludePaths" style="text;strokeColor=none;fillColor=none;align=left;verticalAlign=top;spacingLeft=4;spacingRight=4;overflow=hidden;rotatable=0;points=[[0,0.5],[1,0.5]];portConstraint=eastwest;labelBackgroundColor=none;fontColor=#393C56;rounded=1;" vertex="1" parent="kZADWly243SHnXjZNP4Z-260">
          <mxGeometry y="149.8545448996804" width="200" height="25" as="geometry" />
        </mxCell>
        <mxCell id="kZADWly243SHnXjZNP4Z-267" value="- String preBackupScript" style="text;strokeColor=none;fillColor=none;align=left;verticalAlign=top;spacingLeft=4;spacingRight=4;overflow=hidden;rotatable=0;points=[[0,0.5],[1,0.5]];portConstraint=eastwest;labelBackgroundColor=none;fontColor=#393C56;rounded=1;" vertex="1" parent="kZADWly243SHnXjZNP4Z-260">
          <mxGeometry y="174.8545448996804" width="200" height="25" as="geometry" />
        </mxCell>
        <mxCell id="kZADWly243SHnXjZNP4Z-268" value="- String postBackupScript" style="text;strokeColor=none;fillColor=none;align=left;verticalAlign=top;spacingLeft=4;spacingRight=4;overflow=hidden;rotatable=0;points=[[0,0.5],[1,0.5]];portConstraint=eastwest;labelBackgroundColor=none;fontColor=#393C56;rounded=1;" vertex="1" parent="kZADWly243SHnXjZNP4Z-260">
          <mxGeometry y="199.8545448996804" width="200" height="25" as="geometry" />
        </mxCell>
        <mxCell id="kZADWly243SHnXjZNP4Z-269" style="line;strokeWidth=1;fillColor=none;align=left;verticalAlign=middle;spacingTop=-1;spacingLeft=3;spacingRight=3;rotatable=0;labelPosition=right;points=[];portConstraint=eastwest;strokeColor=#E07A5F;labelBackgroundColor=none;fontColor=#393C56;rounded=1;" vertex="1" parent="kZADWly243SHnXjZNP4Z-260">
          <mxGeometry y="224.8545448996804" width="200" height="8" as="geometry" />
        </mxCell>
        <mxCell id="kZADWly243SHnXjZNP4Z-270" value="+performBackup() : : void" style="text;strokeColor=none;fillColor=none;align=left;verticalAlign=top;spacingLeft=4;spacingRight=4;overflow=hidden;rotatable=0;points=[[0,0.5],[1,0.5]];portConstraint=eastwest;labelBackgroundColor=none;fontColor=#393C56;rounded=1;" vertex="1" parent="kZADWly243SHnXjZNP4Z-260">
          <mxGeometry y="232.8545448996804" width="200" height="25" as="geometry" />
        </mxCell>
        <mxCell id="kZADWly243SHnXjZNP4Z-271" value="+getName() : : String" style="text;strokeColor=none;fillColor=none;align=left;verticalAlign=top;spacingLeft=4;spacingRight=4;overflow=hidden;rotatable=0;points=[[0,0.5],[1,0.5]];portConstraint=eastwest;labelBackgroundColor=none;fontColor=#393C56;rounded=1;" vertex="1" parent="kZADWly243SHnXjZNP4Z-260">
          <mxGeometry y="257.8545448996804" width="200" height="25" as="geometry" />
        </mxCell>
        <mxCell id="kZADWly243SHnXjZNP4Z-272" value="ScriptExecutor" style="swimlane;fontStyle=1;align=center;verticalAlign=top;childLayout=stackLayout;horizontal=1;startSize=25.91111077202691;horizontalStack=0;resizeParent=1;resizeParentMax=0;resizeLast=0;collapsible=0;marginBottom=0;labelBackgroundColor=none;fillColor=#F2CC8F;strokeColor=#E07A5F;fontColor=#393C56;rounded=1;" vertex="1" parent="1">
          <mxGeometry x="2618" y="742" width="343" height="111.91111077202692" as="geometry" />
        </mxCell>
        <mxCell id="kZADWly243SHnXjZNP4Z-273" style="line;strokeWidth=1;fillColor=none;align=left;verticalAlign=middle;spacingTop=-1;spacingLeft=3;spacingRight=3;rotatable=0;labelPosition=right;points=[];portConstraint=eastwest;strokeColor=#E07A5F;labelBackgroundColor=none;fontColor=#393C56;rounded=1;" vertex="1" parent="kZADWly243SHnXjZNP4Z-272">
          <mxGeometry y="25.91111077202691" width="343" height="8" as="geometry" />
        </mxCell>
        <mxCell id="kZADWly243SHnXjZNP4Z-274" value="+executePreBackup(scriptPath: String) : : int" style="text;strokeColor=none;fillColor=none;align=left;verticalAlign=top;spacingLeft=4;spacingRight=4;overflow=hidden;rotatable=0;points=[[0,0.5],[1,0.5]];portConstraint=eastwest;labelBackgroundColor=none;fontColor=#393C56;rounded=1;" vertex="1" parent="kZADWly243SHnXjZNP4Z-272">
          <mxGeometry y="33.91111077202691" width="343" height="26" as="geometry" />
        </mxCell>
        <mxCell id="kZADWly243SHnXjZNP4Z-275" value="+executePostBackup(scriptPath: String) : : int" style="text;strokeColor=none;fillColor=none;align=left;verticalAlign=top;spacingLeft=4;spacingRight=4;overflow=hidden;rotatable=0;points=[[0,0.5],[1,0.5]];portConstraint=eastwest;labelBackgroundColor=none;fontColor=#393C56;rounded=1;" vertex="1" parent="kZADWly243SHnXjZNP4Z-272">
          <mxGeometry y="59.91111077202691" width="343" height="26" as="geometry" />
        </mxCell>
        <mxCell id="kZADWly243SHnXjZNP4Z-276" value="+validateScript(scriptPath: String) : : boolean" style="text;strokeColor=none;fillColor=none;align=left;verticalAlign=top;spacingLeft=4;spacingRight=4;overflow=hidden;rotatable=0;points=[[0,0.5],[1,0.5]];portConstraint=eastwest;labelBackgroundColor=none;fontColor=#393C56;rounded=1;" vertex="1" parent="kZADWly243SHnXjZNP4Z-272">
          <mxGeometry y="85.91111077202692" width="343" height="26" as="geometry" />
        </mxCell>
        <mxCell id="kZADWly243SHnXjZNP4Z-277" value="Database" style="swimlane;fontStyle=1;align=center;verticalAlign=top;childLayout=stackLayout;horizontal=1;startSize=24.8545448996804;horizontalStack=0;resizeParent=1;resizeParentMax=0;resizeLast=0;collapsible=0;marginBottom=0;labelBackgroundColor=none;fillColor=#F2CC8F;strokeColor=#E07A5F;fontColor=#393C56;rounded=1;" vertex="1" parent="1">
          <mxGeometry x="2650" y="325" width="200" height="282.8545448996804" as="geometry" />
        </mxCell>
        <mxCell id="kZADWly243SHnXjZNP4Z-278" value="- String dbName" style="text;strokeColor=none;fillColor=none;align=left;verticalAlign=top;spacingLeft=4;spacingRight=4;overflow=hidden;rotatable=0;points=[[0,0.5],[1,0.5]];portConstraint=eastwest;labelBackgroundColor=none;fontColor=#393C56;rounded=1;" vertex="1" parent="kZADWly243SHnXjZNP4Z-277">
          <mxGeometry y="24.8545448996804" width="200" height="25" as="geometry" />
        </mxCell>
        <mxCell id="kZADWly243SHnXjZNP4Z-279" value="- String type" style="text;strokeColor=none;fillColor=none;align=left;verticalAlign=top;spacingLeft=4;spacingRight=4;overflow=hidden;rotatable=0;points=[[0,0.5],[1,0.5]];portConstraint=eastwest;labelBackgroundColor=none;fontColor=#393C56;rounded=1;" vertex="1" parent="kZADWly243SHnXjZNP4Z-277">
          <mxGeometry y="49.8545448996804" width="200" height="25" as="geometry" />
        </mxCell>
        <mxCell id="kZADWly243SHnXjZNP4Z-280" value="- String host" style="text;strokeColor=none;fillColor=none;align=left;verticalAlign=top;spacingLeft=4;spacingRight=4;overflow=hidden;rotatable=0;points=[[0,0.5],[1,0.5]];portConstraint=eastwest;labelBackgroundColor=none;fontColor=#393C56;rounded=1;" vertex="1" parent="kZADWly243SHnXjZNP4Z-277">
          <mxGeometry y="74.8545448996804" width="200" height="25" as="geometry" />
        </mxCell>
        <mxCell id="kZADWly243SHnXjZNP4Z-281" value="- String user" style="text;strokeColor=none;fillColor=none;align=left;verticalAlign=top;spacingLeft=4;spacingRight=4;overflow=hidden;rotatable=0;points=[[0,0.5],[1,0.5]];portConstraint=eastwest;labelBackgroundColor=none;fontColor=#393C56;rounded=1;" vertex="1" parent="kZADWly243SHnXjZNP4Z-277">
          <mxGeometry y="99.8545448996804" width="200" height="25" as="geometry" />
        </mxCell>
        <mxCell id="kZADWly243SHnXjZNP4Z-282" value="- String password" style="text;strokeColor=none;fillColor=none;align=left;verticalAlign=top;spacingLeft=4;spacingRight=4;overflow=hidden;rotatable=0;points=[[0,0.5],[1,0.5]];portConstraint=eastwest;labelBackgroundColor=none;fontColor=#393C56;rounded=1;" vertex="1" parent="kZADWly243SHnXjZNP4Z-277">
          <mxGeometry y="124.8545448996804" width="200" height="25" as="geometry" />
        </mxCell>
        <mxCell id="kZADWly243SHnXjZNP4Z-283" value="- int port" style="text;strokeColor=none;fillColor=none;align=left;verticalAlign=top;spacingLeft=4;spacingRight=4;overflow=hidden;rotatable=0;points=[[0,0.5],[1,0.5]];portConstraint=eastwest;labelBackgroundColor=none;fontColor=#393C56;rounded=1;" vertex="1" parent="kZADWly243SHnXjZNP4Z-277">
          <mxGeometry y="149.8545448996804" width="200" height="25" as="geometry" />
        </mxCell>
        <mxCell id="kZADWly243SHnXjZNP4Z-284" value="- String preBackupScript" style="text;strokeColor=none;fillColor=none;align=left;verticalAlign=top;spacingLeft=4;spacingRight=4;overflow=hidden;rotatable=0;points=[[0,0.5],[1,0.5]];portConstraint=eastwest;labelBackgroundColor=none;fontColor=#393C56;rounded=1;" vertex="1" parent="kZADWly243SHnXjZNP4Z-277">
          <mxGeometry y="174.8545448996804" width="200" height="25" as="geometry" />
        </mxCell>
        <mxCell id="kZADWly243SHnXjZNP4Z-285" value="- String postBackupScript" style="text;strokeColor=none;fillColor=none;align=left;verticalAlign=top;spacingLeft=4;spacingRight=4;overflow=hidden;rotatable=0;points=[[0,0.5],[1,0.5]];portConstraint=eastwest;labelBackgroundColor=none;fontColor=#393C56;rounded=1;" vertex="1" parent="kZADWly243SHnXjZNP4Z-277">
          <mxGeometry y="199.8545448996804" width="200" height="25" as="geometry" />
        </mxCell>
        <mxCell id="kZADWly243SHnXjZNP4Z-286" style="line;strokeWidth=1;fillColor=none;align=left;verticalAlign=middle;spacingTop=-1;spacingLeft=3;spacingRight=3;rotatable=0;labelPosition=right;points=[];portConstraint=eastwest;strokeColor=#E07A5F;labelBackgroundColor=none;fontColor=#393C56;rounded=1;" vertex="1" parent="kZADWly243SHnXjZNP4Z-277">
          <mxGeometry y="224.8545448996804" width="200" height="8" as="geometry" />
        </mxCell>
        <mxCell id="kZADWly243SHnXjZNP4Z-287" value="+performBackup() : : void" style="text;strokeColor=none;fillColor=none;align=left;verticalAlign=top;spacingLeft=4;spacingRight=4;overflow=hidden;rotatable=0;points=[[0,0.5],[1,0.5]];portConstraint=eastwest;labelBackgroundColor=none;fontColor=#393C56;rounded=1;" vertex="1" parent="kZADWly243SHnXjZNP4Z-277">
          <mxGeometry y="232.8545448996804" width="200" height="25" as="geometry" />
        </mxCell>
        <mxCell id="kZADWly243SHnXjZNP4Z-288" value="+getName() : : String" style="text;strokeColor=none;fillColor=none;align=left;verticalAlign=top;spacingLeft=4;spacingRight=4;overflow=hidden;rotatable=0;points=[[0,0.5],[1,0.5]];portConstraint=eastwest;labelBackgroundColor=none;fontColor=#393C56;rounded=1;" vertex="1" parent="kZADWly243SHnXjZNP4Z-277">
          <mxGeometry y="257.8545448996804" width="200" height="25" as="geometry" />
        </mxCell>
        <mxCell id="kZADWly243SHnXjZNP4Z-289" value="ScheduleConfig" style="swimlane;fontStyle=1;align=center;verticalAlign=top;childLayout=stackLayout;horizontal=1;startSize=26.91428484235491;horizontalStack=0;resizeParent=1;resizeParentMax=0;resizeLast=0;collapsible=0;marginBottom=0;labelBackgroundColor=none;fillColor=#F2CC8F;strokeColor=#E07A5F;fontColor=#393C56;rounded=1;" vertex="1" parent="1">
          <mxGeometry x="752" y="753" width="243" height="93.9142848423549" as="geometry" />
        </mxCell>
        <mxCell id="kZADWly243SHnXjZNP4Z-290" value="- String fullBackupCron" style="text;strokeColor=none;fillColor=none;align=left;verticalAlign=top;spacingLeft=4;spacingRight=4;overflow=hidden;rotatable=0;points=[[0,0.5],[1,0.5]];portConstraint=eastwest;labelBackgroundColor=none;fontColor=#393C56;rounded=1;" vertex="1" parent="kZADWly243SHnXjZNP4Z-289">
          <mxGeometry y="26.91428484235491" width="243" height="27" as="geometry" />
        </mxCell>
        <mxCell id="kZADWly243SHnXjZNP4Z-291" value="- String incrementalBackupCron" style="text;strokeColor=none;fillColor=none;align=left;verticalAlign=top;spacingLeft=4;spacingRight=4;overflow=hidden;rotatable=0;points=[[0,0.5],[1,0.5]];portConstraint=eastwest;labelBackgroundColor=none;fontColor=#393C56;rounded=1;" vertex="1" parent="kZADWly243SHnXjZNP4Z-289">
          <mxGeometry y="53.91428484235491" width="243" height="27" as="geometry" />
        </mxCell>
        <mxCell id="kZADWly243SHnXjZNP4Z-292" style="line;strokeWidth=1;fillColor=none;align=left;verticalAlign=middle;spacingTop=-1;spacingLeft=3;spacingRight=3;rotatable=0;labelPosition=right;points=[];portConstraint=eastwest;strokeColor=#E07A5F;labelBackgroundColor=none;fontColor=#393C56;rounded=1;" vertex="1" parent="kZADWly243SHnXjZNP4Z-289">
          <mxGeometry y="80.9142848423549" width="243" height="13" as="geometry" />
        </mxCell>
        <mxCell id="kZADWly243SHnXjZNP4Z-293" value="RemoteStorageConfig" style="swimlane;fontStyle=1;align=center;verticalAlign=top;childLayout=stackLayout;horizontal=1;startSize=24.830768291766827;horizontalStack=0;resizeParent=1;resizeParentMax=0;resizeLast=0;collapsible=0;marginBottom=0;labelBackgroundColor=none;fillColor=#F2CC8F;strokeColor=#E07A5F;fontColor=#393C56;rounded=1;" vertex="1" parent="1">
          <mxGeometry x="526" y="720" width="176" height="161.83076829176684" as="geometry" />
        </mxCell>
        <mxCell id="kZADWly243SHnXjZNP4Z-294" value="- String host" style="text;strokeColor=none;fillColor=none;align=left;verticalAlign=top;spacingLeft=4;spacingRight=4;overflow=hidden;rotatable=0;points=[[0,0.5],[1,0.5]];portConstraint=eastwest;labelBackgroundColor=none;fontColor=#393C56;rounded=1;" vertex="1" parent="kZADWly243SHnXjZNP4Z-293">
          <mxGeometry y="24.830768291766827" width="176" height="25" as="geometry" />
        </mxCell>
        <mxCell id="kZADWly243SHnXjZNP4Z-295" value="- int port" style="text;strokeColor=none;fillColor=none;align=left;verticalAlign=top;spacingLeft=4;spacingRight=4;overflow=hidden;rotatable=0;points=[[0,0.5],[1,0.5]];portConstraint=eastwest;labelBackgroundColor=none;fontColor=#393C56;rounded=1;" vertex="1" parent="kZADWly243SHnXjZNP4Z-293">
          <mxGeometry y="49.83076829176683" width="176" height="25" as="geometry" />
        </mxCell>
        <mxCell id="kZADWly243SHnXjZNP4Z-296" value="- String user" style="text;strokeColor=none;fillColor=none;align=left;verticalAlign=top;spacingLeft=4;spacingRight=4;overflow=hidden;rotatable=0;points=[[0,0.5],[1,0.5]];portConstraint=eastwest;labelBackgroundColor=none;fontColor=#393C56;rounded=1;" vertex="1" parent="kZADWly243SHnXjZNP4Z-293">
          <mxGeometry y="74.83076829176683" width="176" height="25" as="geometry" />
        </mxCell>
        <mxCell id="kZADWly243SHnXjZNP4Z-297" value="- String password" style="text;strokeColor=none;fillColor=none;align=left;verticalAlign=top;spacingLeft=4;spacingRight=4;overflow=hidden;rotatable=0;points=[[0,0.5],[1,0.5]];portConstraint=eastwest;labelBackgroundColor=none;fontColor=#393C56;rounded=1;" vertex="1" parent="kZADWly243SHnXjZNP4Z-293">
          <mxGeometry y="99.83076829176683" width="176" height="25" as="geometry" />
        </mxCell>
        <mxCell id="kZADWly243SHnXjZNP4Z-298" value="- String remotePath" style="text;strokeColor=none;fillColor=none;align=left;verticalAlign=top;spacingLeft=4;spacingRight=4;overflow=hidden;rotatable=0;points=[[0,0.5],[1,0.5]];portConstraint=eastwest;labelBackgroundColor=none;fontColor=#393C56;rounded=1;" vertex="1" parent="kZADWly243SHnXjZNP4Z-293">
          <mxGeometry y="124.83076829176683" width="176" height="25" as="geometry" />
        </mxCell>
        <mxCell id="kZADWly243SHnXjZNP4Z-299" style="line;strokeWidth=1;fillColor=none;align=left;verticalAlign=middle;spacingTop=-1;spacingLeft=3;spacingRight=3;rotatable=0;labelPosition=right;points=[];portConstraint=eastwest;strokeColor=#E07A5F;labelBackgroundColor=none;fontColor=#393C56;rounded=1;" vertex="1" parent="kZADWly243SHnXjZNP4Z-293">
          <mxGeometry y="149.83076829176684" width="176" height="12" as="geometry" />
        </mxCell>
        <mxCell id="kZADWly243SHnXjZNP4Z-300" value="RetentionPolicy" style="swimlane;fontStyle=1;align=center;verticalAlign=top;childLayout=stackLayout;horizontal=1;startSize=26.91428484235491;horizontalStack=0;resizeParent=1;resizeParentMax=0;resizeLast=0;collapsible=0;marginBottom=0;labelBackgroundColor=none;fillColor=#F2CC8F;strokeColor=#E07A5F;fontColor=#393C56;rounded=1;" vertex="1" parent="1">
          <mxGeometry x="231" y="753" width="245" height="93.9142848423549" as="geometry" />
        </mxCell>
        <mxCell id="kZADWly243SHnXjZNP4Z-301" value="- int fullBackupsToKeep" style="text;strokeColor=none;fillColor=none;align=left;verticalAlign=top;spacingLeft=4;spacingRight=4;overflow=hidden;rotatable=0;points=[[0,0.5],[1,0.5]];portConstraint=eastwest;labelBackgroundColor=none;fontColor=#393C56;rounded=1;" vertex="1" parent="kZADWly243SHnXjZNP4Z-300">
          <mxGeometry y="26.91428484235491" width="245" height="27" as="geometry" />
        </mxCell>
        <mxCell id="kZADWly243SHnXjZNP4Z-302" value="- int incrementalBackupsToKeep" style="text;strokeColor=none;fillColor=none;align=left;verticalAlign=top;spacingLeft=4;spacingRight=4;overflow=hidden;rotatable=0;points=[[0,0.5],[1,0.5]];portConstraint=eastwest;labelBackgroundColor=none;fontColor=#393C56;rounded=1;" vertex="1" parent="kZADWly243SHnXjZNP4Z-300">
          <mxGeometry y="53.91428484235491" width="245" height="27" as="geometry" />
        </mxCell>
        <mxCell id="kZADWly243SHnXjZNP4Z-303" style="line;strokeWidth=1;fillColor=none;align=left;verticalAlign=middle;spacingTop=-1;spacingLeft=3;spacingRight=3;rotatable=0;labelPosition=right;points=[];portConstraint=eastwest;strokeColor=#E07A5F;labelBackgroundColor=none;fontColor=#393C56;rounded=1;" vertex="1" parent="kZADWly243SHnXjZNP4Z-300">
          <mxGeometry y="80.9142848423549" width="245" height="13" as="geometry" />
        </mxCell>
        <mxCell id="kZADWly243SHnXjZNP4Z-304" value="NotificationConfig" style="swimlane;fontStyle=1;align=center;verticalAlign=top;childLayout=stackLayout;horizontal=1;startSize=24.258823170381433;horizontalStack=0;resizeParent=1;resizeParentMax=0;resizeLast=0;collapsible=0;marginBottom=0;labelBackgroundColor=none;fillColor=#F2CC8F;strokeColor=#E07A5F;fontColor=#393C56;rounded=1;" vertex="1" parent="1">
          <mxGeometry x="20" y="697" width="161" height="204.25882317038145" as="geometry" />
        </mxCell>
        <mxCell id="kZADWly243SHnXjZNP4Z-305" value="- boolean enabled" style="text;strokeColor=none;fillColor=none;align=left;verticalAlign=top;spacingLeft=4;spacingRight=4;overflow=hidden;rotatable=0;points=[[0,0.5],[1,0.5]];portConstraint=eastwest;labelBackgroundColor=none;fontColor=#393C56;rounded=1;" vertex="1" parent="kZADWly243SHnXjZNP4Z-304">
          <mxGeometry y="24.258823170381433" width="161" height="24" as="geometry" />
        </mxCell>
        <mxCell id="kZADWly243SHnXjZNP4Z-306" value="- String smtpServer" style="text;strokeColor=none;fillColor=none;align=left;verticalAlign=top;spacingLeft=4;spacingRight=4;overflow=hidden;rotatable=0;points=[[0,0.5],[1,0.5]];portConstraint=eastwest;labelBackgroundColor=none;fontColor=#393C56;rounded=1;" vertex="1" parent="kZADWly243SHnXjZNP4Z-304">
          <mxGeometry y="48.25882317038143" width="161" height="24" as="geometry" />
        </mxCell>
        <mxCell id="kZADWly243SHnXjZNP4Z-307" value="- int smtpPort" style="text;strokeColor=none;fillColor=none;align=left;verticalAlign=top;spacingLeft=4;spacingRight=4;overflow=hidden;rotatable=0;points=[[0,0.5],[1,0.5]];portConstraint=eastwest;labelBackgroundColor=none;fontColor=#393C56;rounded=1;" vertex="1" parent="kZADWly243SHnXjZNP4Z-304">
          <mxGeometry y="72.25882317038143" width="161" height="24" as="geometry" />
        </mxCell>
        <mxCell id="kZADWly243SHnXjZNP4Z-308" value="- String username" style="text;strokeColor=none;fillColor=none;align=left;verticalAlign=top;spacingLeft=4;spacingRight=4;overflow=hidden;rotatable=0;points=[[0,0.5],[1,0.5]];portConstraint=eastwest;labelBackgroundColor=none;fontColor=#393C56;rounded=1;" vertex="1" parent="kZADWly243SHnXjZNP4Z-304">
          <mxGeometry y="96.25882317038143" width="161" height="24" as="geometry" />
        </mxCell>
        <mxCell id="kZADWly243SHnXjZNP4Z-309" value="- String password" style="text;strokeColor=none;fillColor=none;align=left;verticalAlign=top;spacingLeft=4;spacingRight=4;overflow=hidden;rotatable=0;points=[[0,0.5],[1,0.5]];portConstraint=eastwest;labelBackgroundColor=none;fontColor=#393C56;rounded=1;" vertex="1" parent="kZADWly243SHnXjZNP4Z-304">
          <mxGeometry y="120.25882317038143" width="161" height="24" as="geometry" />
        </mxCell>
        <mxCell id="kZADWly243SHnXjZNP4Z-310" value="- String fromAddress" style="text;strokeColor=none;fillColor=none;align=left;verticalAlign=top;spacingLeft=4;spacingRight=4;overflow=hidden;rotatable=0;points=[[0,0.5],[1,0.5]];portConstraint=eastwest;labelBackgroundColor=none;fontColor=#393C56;rounded=1;" vertex="1" parent="kZADWly243SHnXjZNP4Z-304">
          <mxGeometry y="144.25882317038145" width="161" height="24" as="geometry" />
        </mxCell>
        <mxCell id="kZADWly243SHnXjZNP4Z-311" value="- List toAddresses" style="text;strokeColor=none;fillColor=none;align=left;verticalAlign=top;spacingLeft=4;spacingRight=4;overflow=hidden;rotatable=0;points=[[0,0.5],[1,0.5]];portConstraint=eastwest;labelBackgroundColor=none;fontColor=#393C56;rounded=1;" vertex="1" parent="kZADWly243SHnXjZNP4Z-304">
          <mxGeometry y="168.25882317038145" width="161" height="24" as="geometry" />
        </mxCell>
        <mxCell id="kZADWly243SHnXjZNP4Z-312" style="line;strokeWidth=1;fillColor=none;align=left;verticalAlign=middle;spacingTop=-1;spacingLeft=3;spacingRight=3;rotatable=0;labelPosition=right;points=[];portConstraint=eastwest;strokeColor=#E07A5F;labelBackgroundColor=none;fontColor=#393C56;rounded=1;" vertex="1" parent="kZADWly243SHnXjZNP4Z-304">
          <mxGeometry y="192.25882317038145" width="161" height="12" as="geometry" />
        </mxCell>
        <mxCell id="kZADWly243SHnXjZNP4Z-313" value="&quot;creates&quot;" style="curved=1;startArrow=diamondThin;startSize=14;startFill=1;endArrow=none;exitX=0;exitY=0.78;entryX=0.5;entryY=0;rounded=1;labelBackgroundColor=none;strokeColor=#E07A5F;fontColor=default;" edge="1" parent="1" source="kZADWly243SHnXjZNP4Z-203" target="kZADWly243SHnXjZNP4Z-212">
          <mxGeometry relative="1" as="geometry">
            <Array as="points">
              <mxPoint x="1166" y="268" />
            </Array>
          </mxGeometry>
        </mxCell>
        <mxCell id="kZADWly243SHnXjZNP4Z-314" value="&quot;uses&quot;" style="curved=1;startArrow=none;endArrow=open;endSize=12;exitX=0;exitY=0.6;entryX=0.5;entryY=0;rounded=1;labelBackgroundColor=none;strokeColor=#E07A5F;fontColor=default;" edge="1" parent="1" source="kZADWly243SHnXjZNP4Z-203" target="kZADWly243SHnXjZNP4Z-217">
          <mxGeometry relative="1" as="geometry">
            <Array as="points">
              <mxPoint x="484" y="268" />
            </Array>
          </mxGeometry>
        </mxCell>
        <mxCell id="kZADWly243SHnXjZNP4Z-315" value="&quot;uses&quot;" style="curved=1;startArrow=none;endArrow=open;endSize=12;exitX=0.2;exitY=1;entryX=0.5;entryY=0;rounded=1;labelBackgroundColor=none;strokeColor=#E07A5F;fontColor=default;" edge="1" parent="1" source="kZADWly243SHnXjZNP4Z-203" target="kZADWly243SHnXjZNP4Z-231">
          <mxGeometry relative="1" as="geometry">
            <Array as="points">
              <mxPoint x="1418" y="268" />
            </Array>
          </mxGeometry>
        </mxCell>
        <mxCell id="kZADWly243SHnXjZNP4Z-316" value="&quot;uses&quot;" style="curved=1;startArrow=none;endArrow=open;endSize=12;exitX=0.8;exitY=1;entryX=0.5;entryY=0;rounded=1;labelBackgroundColor=none;strokeColor=#E07A5F;fontColor=default;" edge="1" parent="1" source="kZADWly243SHnXjZNP4Z-203" target="kZADWly243SHnXjZNP4Z-235">
          <mxGeometry relative="1" as="geometry">
            <Array as="points">
              <mxPoint x="1670" y="268" />
            </Array>
          </mxGeometry>
        </mxCell>
        <mxCell id="kZADWly243SHnXjZNP4Z-317" value="&quot;uses&quot;" style="curved=1;startArrow=none;endArrow=open;endSize=12;exitX=1;exitY=0.77;entryX=0.5;entryY=0;rounded=1;labelBackgroundColor=none;strokeColor=#E07A5F;fontColor=default;" edge="1" parent="1" source="kZADWly243SHnXjZNP4Z-203" target="kZADWly243SHnXjZNP4Z-240">
          <mxGeometry relative="1" as="geometry">
            <Array as="points">
              <mxPoint x="1934" y="268" />
            </Array>
          </mxGeometry>
        </mxCell>
        <mxCell id="kZADWly243SHnXjZNP4Z-318" value="&quot;uses&quot;" style="curved=1;startArrow=none;endArrow=open;endSize=12;exitX=1;exitY=0.66;entryX=0.5;entryY=0;rounded=1;labelBackgroundColor=none;strokeColor=#E07A5F;fontColor=default;" edge="1" parent="1" source="kZADWly243SHnXjZNP4Z-203" target="kZADWly243SHnXjZNP4Z-244">
          <mxGeometry relative="1" as="geometry">
            <Array as="points">
              <mxPoint x="2219" y="268" />
            </Array>
          </mxGeometry>
        </mxCell>
        <mxCell id="kZADWly243SHnXjZNP4Z-319" value="&quot;generates&quot;" style="curved=1;startArrow=diamondThin;startSize=14;startFill=1;endArrow=none;exitX=0.43;exitY=1;entryX=0.5;entryY=0;rounded=1;labelBackgroundColor=none;strokeColor=#E07A5F;fontColor=default;" edge="1" parent="1" source="kZADWly243SHnXjZNP4Z-212" target="kZADWly243SHnXjZNP4Z-249">
          <mxGeometry relative="1" as="geometry">
            <Array as="points">
              <mxPoint x="1114" y="663" />
            </Array>
          </mxGeometry>
        </mxCell>
        <mxCell id="kZADWly243SHnXjZNP4Z-320" value="&quot;aggregates&quot;" style="curved=1;startArrow=diamondThin;startSize=14;startFill=0;endArrow=none;exitX=1.014;exitY=1.118;entryX=0.37;entryY=0;rounded=1;exitDx=0;exitDy=0;exitPerimeter=0;labelBackgroundColor=none;strokeColor=#E07A5F;fontColor=default;" edge="1" parent="1" source="kZADWly243SHnXjZNP4Z-216" target="kZADWly243SHnXjZNP4Z-256">
          <mxGeometry relative="1" as="geometry">
            <Array as="points">
              <mxPoint x="1801" y="663" />
            </Array>
          </mxGeometry>
        </mxCell>
        <mxCell id="kZADWly243SHnXjZNP4Z-321" value="" style="curved=1;dashed=1;startArrow=none;endArrow=block;endSize=16;endFill=0;exitX=0;exitY=0.5;entryX=0.56;entryY=0;rounded=1;exitDx=0;exitDy=0;labelBackgroundColor=none;strokeColor=#E07A5F;fontColor=default;" edge="1" parent="1" source="kZADWly243SHnXjZNP4Z-268" target="kZADWly243SHnXjZNP4Z-256">
          <mxGeometry relative="1" as="geometry">
            <Array as="points">
              <mxPoint x="1885" y="663" />
            </Array>
          </mxGeometry>
        </mxCell>
        <mxCell id="kZADWly243SHnXjZNP4Z-322" value="&quot;uses for scripts&quot;" style="curved=1;dashed=1;startArrow=none;endArrow=open;endSize=12;exitX=1;exitY=0.93;entryX=0.34;entryY=0;rounded=1;labelBackgroundColor=none;strokeColor=#E07A5F;fontColor=default;" edge="1" parent="1" source="kZADWly243SHnXjZNP4Z-260" target="kZADWly243SHnXjZNP4Z-272">
          <mxGeometry relative="1" as="geometry">
            <Array as="points">
              <mxPoint x="2665" y="663" />
            </Array>
          </mxGeometry>
        </mxCell>
        <mxCell id="kZADWly243SHnXjZNP4Z-323" value="" style="curved=1;dashed=1;startArrow=none;endArrow=block;endSize=16;endFill=0;exitX=0;exitY=1.086;entryX=1.007;entryY=0.377;rounded=1;exitDx=0;exitDy=0;exitPerimeter=0;entryDx=0;entryDy=0;entryPerimeter=0;labelBackgroundColor=none;strokeColor=#E07A5F;fontColor=default;" edge="1" parent="1" source="kZADWly243SHnXjZNP4Z-288" target="kZADWly243SHnXjZNP4Z-256">
          <mxGeometry relative="1" as="geometry">
            <Array as="points">
              <mxPoint x="2340" y="740" />
            </Array>
          </mxGeometry>
        </mxCell>
        <mxCell id="kZADWly243SHnXjZNP4Z-324" value="&quot;uses for scripts&quot;" style="curved=1;dashed=1;startArrow=none;endArrow=open;endSize=12;exitX=0.89;exitY=1;entryX=0.59;entryY=0;rounded=1;labelBackgroundColor=none;strokeColor=#E07A5F;fontColor=default;" edge="1" parent="1" source="kZADWly243SHnXjZNP4Z-277" target="kZADWly243SHnXjZNP4Z-272">
          <mxGeometry relative="1" as="geometry">
            <Array as="points">
              <mxPoint x="2859" y="663" />
            </Array>
          </mxGeometry>
        </mxCell>
        <mxCell id="kZADWly243SHnXjZNP4Z-325" value="&quot;provides&quot;" style="curved=1;startArrow=none;endArrow=open;endSize=12;exitX=1;exitY=0.8;entryX=0.5;entryY=0;rounded=1;labelBackgroundColor=none;strokeColor=#E07A5F;fontColor=default;" edge="1" parent="1" source="kZADWly243SHnXjZNP4Z-217" target="kZADWly243SHnXjZNP4Z-289">
          <mxGeometry relative="1" as="geometry">
            <Array as="points">
              <mxPoint x="874" y="663" />
            </Array>
          </mxGeometry>
        </mxCell>
        <mxCell id="kZADWly243SHnXjZNP4Z-326" value="&quot;provides&quot;" style="curved=1;startArrow=none;endArrow=open;endSize=12;exitX=0.77;exitY=1;entryX=0.5;entryY=0;rounded=1;labelBackgroundColor=none;strokeColor=#E07A5F;fontColor=default;" edge="1" parent="1" source="kZADWly243SHnXjZNP4Z-217" target="kZADWly243SHnXjZNP4Z-293">
          <mxGeometry relative="1" as="geometry">
            <Array as="points">
              <mxPoint x="614" y="663" />
            </Array>
          </mxGeometry>
        </mxCell>
        <mxCell id="kZADWly243SHnXjZNP4Z-327" value="&quot;provides&quot;" style="curved=1;startArrow=none;endArrow=open;endSize=12;exitX=0.23;exitY=1;entryX=0.5;entryY=0;rounded=1;labelBackgroundColor=none;strokeColor=#E07A5F;fontColor=default;" edge="1" parent="1" source="kZADWly243SHnXjZNP4Z-217" target="kZADWly243SHnXjZNP4Z-300">
          <mxGeometry relative="1" as="geometry">
            <Array as="points">
              <mxPoint x="354" y="663" />
            </Array>
          </mxGeometry>
        </mxCell>
        <mxCell id="kZADWly243SHnXjZNP4Z-328" value="&quot;provides&quot;" style="curved=1;startArrow=none;endArrow=open;endSize=12;exitX=0;exitY=0.81;entryX=0.5;entryY=0;rounded=1;labelBackgroundColor=none;strokeColor=#E07A5F;fontColor=default;" edge="1" parent="1" source="kZADWly243SHnXjZNP4Z-217" target="kZADWly243SHnXjZNP4Z-304">
          <mxGeometry relative="1" as="geometry">
            <Array as="points">
              <mxPoint x="101" y="663" />
            </Array>
          </mxGeometry>
        </mxCell>
      </root>
    </mxGraphModel>
  </diagram>
</mxfile>
